<?xml version="1.0" encoding="utf-8"?>
<!-- Generator: Adobe Illustrator 16.0.0, SVG Export Plug-In . SVG Version: 6.00 Build 0)  -->
<!DOCTYPE svg PUBLIC "-//W3C//DTD SVG 1.1//EN" "http://www.w3.org/Graphics/SVG/1.1/DTD/svg11.dtd">
<svg version="1.1" id="Layer_1" xmlns="http://www.w3.org/2000/svg" xmlns:xlink="http://www.w3.org/1999/xlink" x="0px" y="0px"
	 width="267px" height="98px" viewBox="0 0 267 98" enable-background="new 0 0 267 98" xml:space="preserve">
<g>
	<path fill="#0E824F" d="M54.308,96.561l-3.763-11.518h1.605l1.798,5.676c0.493,1.555,0.92,2.952,1.229,4.305h0.031
		c0.327-1.332,0.805-2.789,1.316-4.287l1.95-5.692h1.587l-4.116,11.517H54.308z"/>
	<path fill="#0E824F" d="M63.333,92.447c0,1.803,1.042,3.174,2.511,3.174c1.434,0,2.511-1.352,2.511-3.21
		c0-1.408-0.701-3.183-2.474-3.183C64.099,89.229,63.333,90.874,63.333,92.447 M69.893,92.355c0,3.063-2.119,4.396-4.119,4.396
		c-2.235,0-3.965-1.646-3.965-4.259c0-2.769,1.813-4.388,4.103-4.388C68.29,88.105,69.893,89.827,69.893,92.355"/>
	<path fill="#0E824F" d="M79.396,96.256c-0.391,0.203-1.264,0.479-2.374,0.479c-2.493,0-4.12-1.692-4.12-4.225
		c0-2.547,1.743-4.386,4.443-4.386c0.892,0,1.674,0.222,2.087,0.423l-0.345,1.159c-0.358-0.203-0.918-0.386-1.742-0.386
		c-1.895,0-2.92,1.397-2.92,3.127c0,1.914,1.227,3.092,2.868,3.092c0.856,0,1.423-0.221,1.845-0.415L79.396,96.256z"/>
	<path fill="#0E824F" d="M86.512,84.721l1.637,2.447h-1.146l-0.988-1.628h-0.038l-0.988,1.628h-1.125l1.623-2.447H86.512z
		 M88.016,91.62c0.013-0.956-0.397-2.437-2.089-2.437c-1.52,0-2.185,1.396-2.308,2.437H88.016z M83.604,92.695
		c0.033,2.033,1.334,2.871,2.838,2.871c1.076,0,1.725-0.185,2.285-0.424l0.258,1.076c-0.529,0.24-1.435,0.516-2.75,0.516
		c-2.543,0-4.065-1.674-4.065-4.166c0-2.504,1.467-4.463,3.877-4.463c2.7,0,3.417,2.375,3.417,3.893c0,0.311-0.033,0.55-0.051,0.697
		H83.604z"/>
	<path fill="#0E824F" d="M98.373,90.525c0-0.848-0.018-1.555-0.068-2.235h1.315l0.068,1.334h0.05
		c0.466-0.783,1.234-1.519,2.598-1.519c1.128,0,1.982,0.683,2.342,1.656h0.032c0.256-0.459,0.584-0.82,0.925-1.078
		c0.495-0.377,1.043-0.578,1.829-0.578c1.091,0,2.714,0.717,2.714,3.588v4.865h-1.466v-4.682c0-1.583-0.584-2.547-1.795-2.547
		c-0.855,0-1.521,0.633-1.779,1.37c-0.064,0.2-0.121,0.478-0.121,0.755v5.104h-1.467v-4.949c0-1.315-0.584-2.279-1.729-2.279
		c-0.938,0-1.618,0.754-1.862,1.507c-0.083,0.222-0.119,0.479-0.119,0.737v4.984h-1.468L98.373,90.525L98.373,90.525z"/>
	<path fill="#0E824F" d="M118.697,92.338c-1.644-0.029-3.506,0.255-3.506,1.867c0,0.975,0.654,1.436,1.422,1.436
		c1.076,0,1.757-0.68,2-1.39c0.05-0.147,0.083-0.321,0.083-0.468L118.697,92.338L118.697,92.338z M118.917,96.561l-0.114-1.039
		h-0.057c-0.459,0.645-1.347,1.231-2.529,1.231c-1.674,0-2.53-1.187-2.53-2.383c0-1.996,1.781-3.089,4.977-3.072v-0.166
		c0-0.69-0.189-1.923-1.881-1.923c-0.769,0-1.573,0.25-2.153,0.618l-0.339-0.984c0.68-0.452,1.673-0.735,2.713-0.735
		c2.528,0,3.145,1.721,3.145,3.385v3.089c0,0.718,0.033,1.418,0.134,1.979H118.917z"/>
	<path fill="#0E824F" d="M124.289,88.29h1.505v8.271h-1.505V88.29z M125.963,85.973c0.013,0.506-0.359,0.92-0.957,0.92
		c-0.528,0-0.905-0.416-0.905-0.92c0-0.533,0.391-0.949,0.938-0.949C125.604,85.023,125.963,85.438,125.963,85.973"/>
	<path fill="#0E824F" d="M129.793,95.023c0.442,0.295,1.229,0.598,1.978,0.598c1.094,0,1.61-0.542,1.61-1.232
		c0-0.718-0.433-1.103-1.541-1.517c-1.485-0.534-2.184-1.353-2.184-2.347c0-1.323,1.075-2.418,2.85-2.418
		c0.837,0,1.572,0.238,2.032,0.506l-0.377,1.094c-0.323-0.203-0.92-0.477-1.691-0.477c-0.887,0-1.379,0.513-1.379,1.129
		c0,0.681,0.492,0.994,1.572,1.397c1.435,0.552,2.171,1.271,2.171,2.493c0,1.454-1.133,2.484-3.094,2.484
		c-0.907,0-1.743-0.223-2.322-0.569L129.793,95.023z"/>
	<path fill="#0E824F" d="M143.6,95.023c0.449,0.295,1.231,0.598,1.988,0.598c1.084,0,1.602-0.542,1.602-1.232
		c0-0.718-0.424-1.103-1.539-1.517c-1.481-0.534-2.188-1.353-2.188-2.347c0-1.323,1.076-2.418,2.861-2.418
		c0.827,0,1.563,0.238,2.032,0.506l-0.377,1.094c-0.33-0.203-0.929-0.477-1.692-0.477c-0.894,0-1.39,0.513-1.39,1.129
		c0,0.681,0.496,0.994,1.574,1.397c1.436,0.552,2.17,1.271,2.17,2.493c0,1.454-1.121,2.484-3.093,2.484
		c-0.899,0-1.745-0.223-2.325-0.569L143.6,95.023z"/>
	<path fill="#0E824F" d="M156.645,92.338c-1.639-0.029-3.504,0.255-3.504,1.867c0,0.975,0.65,1.436,1.416,1.436
		c1.074,0,1.766-0.68,2.004-1.39c0.047-0.147,0.084-0.321,0.084-0.468V92.338z M156.861,96.561l-0.116-1.039h-0.047
		c-0.468,0.645-1.351,1.231-2.529,1.231c-1.674,0-2.528-1.187-2.528-2.383c0-1.996,1.776-3.089,4.967-3.072v-0.166
		c0-0.69-0.185-1.923-1.879-1.923c-0.771,0-1.571,0.25-2.15,0.618l-0.342-0.984c0.681-0.452,1.675-0.735,2.716-0.735
		c2.528,0,3.146,1.721,3.146,3.385v3.089c0,0.718,0.036,1.418,0.137,1.979H156.861z"/>
	<path fill="#0E824F" d="M169.15,94.307c0,0.855,0.021,1.608,0.066,2.254h-1.326l-0.09-1.354h-0.029
		c-0.394,0.67-1.27,1.545-2.74,1.545c-1.297,0-2.852-0.717-2.852-3.625V88.29h1.51v4.582c0,1.573,0.478,2.631,1.838,2.631
		c1.015,0,1.713-0.7,1.99-1.372c0.08-0.221,0.137-0.486,0.137-0.764V88.29h1.498v6.017H169.15z"/>
	<path fill="#0E824F" d="M178.996,91.656c0-0.186-0.008-0.442-0.066-0.635c-0.22-0.957-1.039-1.74-2.17-1.74
		c-1.555,0-2.474,1.363-2.474,3.193c0,1.674,0.819,3.063,2.446,3.063c1.004,0,1.924-0.673,2.197-1.794
		c0.059-0.212,0.066-0.414,0.066-0.652V91.656L178.996,91.656z M180.504,84.426v9.999c0,0.736,0.016,1.573,0.063,2.134h-1.342
		l-0.072-1.436h-0.029c-0.469,0.92-1.471,1.628-2.825,1.628c-1.995,0-3.54-1.692-3.54-4.205c-0.011-2.75,1.691-4.442,3.717-4.442
		c1.262,0,2.116,0.599,2.491,1.26h0.029v-4.938L180.504,84.426L180.504,84.426z"/>
	<path fill="#0E824F" d="M189.82,84.721l-2.088,2.447h-1.075l1.509-2.447H189.82z M189.066,92.338
		c-1.637-0.029-3.504,0.255-3.504,1.867c0,0.975,0.654,1.436,1.426,1.436c1.078,0,1.758-0.68,1.996-1.39
		c0.045-0.147,0.084-0.321,0.084-0.468v-1.445H189.066z M189.288,96.561l-0.12-1.039h-0.046c-0.46,0.645-1.353,1.231-2.528,1.231
		c-1.674,0-2.531-1.187-2.531-2.383c0-1.996,1.775-3.089,4.967-3.072v-0.166c0-0.69-0.184-1.923-1.875-1.923
		c-0.764,0-1.573,0.25-2.151,0.618l-0.343-0.984c0.683-0.452,1.676-0.735,2.715-0.735c2.527,0,3.146,1.721,3.146,3.385v3.089
		c0,0.718,0.037,1.418,0.138,1.979H189.288z"/>
	<path fill="#0E824F" d="M195.1,88.29l1.629,4.646c0.276,0.754,0.496,1.435,0.664,2.125h0.056c0.184-0.69,0.423-1.371,0.698-2.125
		l1.6-4.646h1.572l-3.245,8.271h-1.437L193.5,88.29H195.1L195.1,88.29z"/>
	<path fill="#0E824F" d="M209.533,91.62c0.01-0.956-0.396-2.437-2.088-2.437c-1.525,0-2.189,1.396-2.309,2.437H209.533z
		 M205.118,92.695c0.036,2.033,1.333,2.871,2.832,2.871c1.087,0,1.729-0.185,2.303-0.424l0.247,1.076
		c-0.525,0.24-1.434,0.516-2.75,0.516c-2.54,0-4.066-1.674-4.066-4.166c0-2.504,1.471-4.463,3.881-4.463
		c2.696,0,3.422,2.375,3.422,3.893c0,0.311-0.038,0.55-0.055,0.697H205.118z"/>
	<rect x="214.555" y="84.426" fill="#0E824F" width="1.51" height="12.133"/>
	<path fill="#0E824F" d="M54.308,96.561l-3.763-11.518h1.605l1.798,5.676c0.493,1.555,0.92,2.952,1.229,4.305h0.031
		c0.327-1.332,0.805-2.789,1.316-4.287l1.95-5.692h1.587l-4.116,11.517H54.308z"/>
	<path fill="#0E824F" d="M63.333,92.447c0,1.803,1.042,3.174,2.511,3.174c1.434,0,2.511-1.352,2.511-3.21
		c0-1.408-0.701-3.183-2.474-3.183C64.099,89.229,63.333,90.874,63.333,92.447 M69.893,92.355c0,3.063-2.119,4.396-4.119,4.396
		c-2.235,0-3.965-1.646-3.965-4.259c0-2.769,1.813-4.388,4.103-4.388C68.29,88.105,69.893,89.827,69.893,92.355"/>
	<path fill="#0E824F" d="M79.396,96.256c-0.391,0.203-1.264,0.479-2.374,0.479c-2.493,0-4.12-1.692-4.12-4.225
		c0-2.547,1.743-4.386,4.443-4.386c0.892,0,1.674,0.222,2.087,0.423l-0.345,1.159c-0.358-0.203-0.918-0.386-1.742-0.386
		c-1.895,0-2.92,1.397-2.92,3.127c0,1.914,1.227,3.092,2.868,3.092c0.856,0,1.423-0.221,1.845-0.415L79.396,96.256z"/>
	<path fill="#0E824F" d="M86.512,84.721l1.637,2.447h-1.146l-0.988-1.628h-0.038l-0.988,1.628h-1.125l1.623-2.447H86.512z
		 M88.016,91.62c0.013-0.956-0.397-2.437-2.089-2.437c-1.52,0-2.185,1.396-2.308,2.437H88.016z M83.604,92.695
		c0.033,2.033,1.334,2.871,2.838,2.871c1.076,0,1.725-0.185,2.285-0.424l0.258,1.076c-0.529,0.24-1.435,0.516-2.75,0.516
		c-2.543,0-4.065-1.674-4.065-4.166c0-2.504,1.467-4.463,3.877-4.463c2.7,0,3.417,2.375,3.417,3.893c0,0.311-0.033,0.55-0.051,0.697
		H83.604z"/>
	<path fill="#0E824F" d="M98.373,90.525c0-0.848-0.018-1.555-0.068-2.235h1.315l0.068,1.334h0.05
		c0.466-0.783,1.234-1.519,2.598-1.519c1.128,0,1.982,0.683,2.342,1.656h0.032c0.256-0.459,0.584-0.82,0.925-1.078
		c0.495-0.377,1.043-0.578,1.829-0.578c1.091,0,2.714,0.717,2.714,3.588v4.865h-1.466v-4.682c0-1.583-0.584-2.547-1.795-2.547
		c-0.855,0-1.521,0.633-1.779,1.37c-0.064,0.2-0.121,0.478-0.121,0.755v5.104h-1.467v-4.949c0-1.315-0.584-2.279-1.729-2.279
		c-0.938,0-1.618,0.754-1.862,1.507c-0.083,0.222-0.119,0.479-0.119,0.737v4.984h-1.468L98.373,90.525L98.373,90.525z"/>
	<path fill="#0E824F" d="M118.697,92.338c-1.644-0.029-3.506,0.255-3.506,1.867c0,0.975,0.654,1.436,1.422,1.436
		c1.076,0,1.757-0.68,2-1.39c0.05-0.147,0.083-0.321,0.083-0.468L118.697,92.338L118.697,92.338z M118.917,96.561l-0.114-1.039
		h-0.057c-0.459,0.645-1.347,1.231-2.529,1.231c-1.674,0-2.53-1.187-2.53-2.383c0-1.996,1.781-3.089,4.977-3.072v-0.166
		c0-0.69-0.189-1.923-1.881-1.923c-0.769,0-1.573,0.25-2.153,0.618l-0.339-0.984c0.68-0.452,1.673-0.735,2.713-0.735
		c2.528,0,3.145,1.721,3.145,3.385v3.089c0,0.718,0.033,1.418,0.134,1.979H118.917z"/>
	<path fill="#0E824F" d="M124.289,88.29h1.505v8.271h-1.505V88.29z M125.963,85.973c0.013,0.506-0.359,0.92-0.957,0.92
		c-0.528,0-0.905-0.416-0.905-0.92c0-0.533,0.391-0.949,0.938-0.949C125.604,85.023,125.963,85.438,125.963,85.973"/>
	<path fill="#0E824F" d="M129.793,95.023c0.442,0.295,1.229,0.598,1.978,0.598c1.094,0,1.61-0.542,1.61-1.232
		c0-0.718-0.433-1.103-1.541-1.517c-1.485-0.534-2.184-1.353-2.184-2.347c0-1.323,1.075-2.418,2.85-2.418
		c0.837,0,1.572,0.238,2.032,0.506l-0.377,1.094c-0.323-0.203-0.92-0.477-1.691-0.477c-0.887,0-1.379,0.513-1.379,1.129
		c0,0.681,0.492,0.994,1.572,1.397c1.435,0.552,2.171,1.271,2.171,2.493c0,1.454-1.133,2.484-3.094,2.484
		c-0.907,0-1.743-0.223-2.322-0.569L129.793,95.023z"/>
	<path fill="#0E824F" d="M143.6,95.023c0.449,0.295,1.231,0.598,1.988,0.598c1.084,0,1.602-0.542,1.602-1.232
		c0-0.718-0.424-1.103-1.539-1.517c-1.481-0.534-2.188-1.353-2.188-2.347c0-1.323,1.076-2.418,2.861-2.418
		c0.827,0,1.563,0.238,2.032,0.506l-0.377,1.094c-0.33-0.203-0.929-0.477-1.692-0.477c-0.894,0-1.39,0.513-1.39,1.129
		c0,0.681,0.496,0.994,1.574,1.397c1.436,0.552,2.17,1.271,2.17,2.493c0,1.454-1.121,2.484-3.093,2.484
		c-0.899,0-1.745-0.223-2.325-0.569L143.6,95.023z"/>
	<path fill="#0E824F" d="M156.645,92.338c-1.639-0.029-3.504,0.255-3.504,1.867c0,0.975,0.65,1.436,1.416,1.436
		c1.074,0,1.766-0.68,2.004-1.39c0.047-0.147,0.084-0.321,0.084-0.468V92.338z M156.861,96.561l-0.116-1.039h-0.047
		c-0.468,0.645-1.351,1.231-2.529,1.231c-1.674,0-2.528-1.187-2.528-2.383c0-1.996,1.776-3.089,4.967-3.072v-0.166
		c0-0.69-0.185-1.923-1.879-1.923c-0.771,0-1.571,0.25-2.15,0.618l-0.342-0.984c0.681-0.452,1.675-0.735,2.716-0.735
		c2.528,0,3.146,1.721,3.146,3.385v3.089c0,0.718,0.036,1.418,0.137,1.979H156.861z"/>
	<path fill="#0E824F" d="M169.15,94.307c0,0.855,0.021,1.608,0.066,2.254h-1.326l-0.09-1.354h-0.029
		c-0.394,0.67-1.27,1.545-2.74,1.545c-1.297,0-2.852-0.717-2.852-3.625V88.29h1.51v4.582c0,1.573,0.478,2.631,1.838,2.631
		c1.015,0,1.713-0.7,1.99-1.372c0.08-0.221,0.137-0.486,0.137-0.764V88.29h1.498v6.017H169.15z"/>
	<path fill="#0E824F" d="M178.996,91.656c0-0.186-0.008-0.442-0.066-0.635c-0.22-0.957-1.039-1.74-2.17-1.74
		c-1.555,0-2.474,1.363-2.474,3.193c0,1.674,0.819,3.063,2.446,3.063c1.004,0,1.924-0.673,2.197-1.794
		c0.059-0.212,0.066-0.414,0.066-0.652V91.656L178.996,91.656z M180.504,84.426v9.999c0,0.736,0.016,1.573,0.063,2.134h-1.342
		l-0.072-1.436h-0.029c-0.469,0.92-1.471,1.628-2.825,1.628c-1.995,0-3.54-1.692-3.54-4.205c-0.011-2.75,1.691-4.442,3.717-4.442
		c1.262,0,2.116,0.599,2.491,1.26h0.029v-4.938L180.504,84.426L180.504,84.426z"/>
	<path fill="#0E824F" d="M189.82,84.721l-2.088,2.447h-1.075l1.509-2.447H189.82z M189.066,92.338
		c-1.637-0.029-3.504,0.255-3.504,1.867c0,0.975,0.654,1.436,1.426,1.436c1.078,0,1.758-0.68,1.996-1.39
		c0.045-0.147,0.084-0.321,0.084-0.468v-1.445H189.066z M189.288,96.561l-0.12-1.039h-0.046c-0.46,0.645-1.353,1.231-2.528,1.231
		c-1.674,0-2.531-1.187-2.531-2.383c0-1.996,1.775-3.089,4.967-3.072v-0.166c0-0.69-0.184-1.923-1.875-1.923
		c-0.764,0-1.573,0.25-2.151,0.618l-0.343-0.984c0.683-0.452,1.676-0.735,2.715-0.735c2.527,0,3.146,1.721,3.146,3.385v3.089
		c0,0.718,0.037,1.418,0.138,1.979H189.288z"/>
	<path fill="#0E824F" d="M195.1,88.29l1.629,4.646c0.276,0.754,0.496,1.435,0.664,2.125h0.056c0.184-0.69,0.423-1.371,0.698-2.125
		l1.6-4.646h1.572l-3.245,8.271h-1.437L193.5,88.29H195.1L195.1,88.29z"/>
	<path fill="#0E824F" d="M209.533,91.62c0.01-0.956-0.396-2.437-2.088-2.437c-1.525,0-2.189,1.396-2.309,2.437H209.533z
		 M205.118,92.695c0.036,2.033,1.333,2.871,2.832,2.871c1.087,0,1.729-0.185,2.303-0.424l0.247,1.076
		c-0.525,0.24-1.434,0.516-2.75,0.516c-2.54,0-4.066-1.674-4.066-4.166c0-2.504,1.471-4.463,3.881-4.463
		c2.696,0,3.422,2.375,3.422,3.893c0,0.311-0.038,0.55-0.055,0.697H205.118z"/>
	<rect x="214.555" y="84.426" fill="#0E824F" width="1.51" height="12.133"/>
	<g>
		<path fill="#0E824F" d="M177.943,34.758c-2.313,0-3.815,1.651-4.256,4.182h8.4C181.758,36.445,180.291,34.758,177.943,34.758z"/>
		<path fill="#0E824F" d="M126.731,35.088c-3.191,0-5.099,2.458-5.099,5.356v0.073c0,2.897,2.091,5.429,5.172,5.429
			c3.191,0,5.099-2.458,5.099-5.355v-0.074C131.903,37.619,129.813,35.088,126.731,35.088z"/>
		<path fill="#0E824F" d="M103.949,35.015c-2.604,0-4.805,2.128-4.805,5.429v0.073c0,3.265,2.201,5.429,4.805,5.429
			c2.605,0,4.769-2.165,4.769-5.429v-0.073C108.718,37.179,106.554,35.015,103.949,35.015z"/>
		<path fill="#0E824F" d="M212.831,35.015c-2.604,0-4.806,2.128-4.806,5.429v0.073c0,3.265,2.201,5.429,4.806,5.429
			s4.769-2.165,4.769-5.429v-0.073C217.6,37.179,215.436,35.015,212.831,35.015z"/>
		<path fill="#0E824F" d="M266.963,0h-18.922H18.958C8.486,0,0,8.485,0,18.957v37.322c0,5.234,0.028,18.959,0.028,18.959h18.93
			h229.083c10.468,0,18.959-8.491,18.959-18.959V18.957v-0.003C267,13.719,266.963,0,266.963,0z M48.479,47.707
			c0,1.577-1.247,2.824-2.824,2.824c-1.541,0-2.788-1.284-2.788-2.824V34.905l-4.952,7.63c-0.587,0.88-1.321,1.431-2.348,1.431
			s-1.761-0.551-2.347-1.431l-4.879-7.52V47.78c0,1.541-1.247,2.751-2.788,2.751c-1.541,0-2.751-1.21-2.751-2.751V27.312
			c0-1.577,1.247-2.825,2.824-2.825h0.624c1.211,0,2.055,0.624,2.568,1.467l6.823,11.115L42.5,25.917
			c0.587-0.954,1.394-1.431,2.531-1.431h0.624c1.577,0,2.824,1.248,2.824,2.825V47.707z M70.272,47.743
			c0,1.541-1.247,2.788-2.788,2.788s-2.788-1.247-2.788-2.788v-0.22c-1.284,1.651-2.935,3.155-5.759,3.155
			c-4.218,0-6.676-2.788-6.676-7.3V33.217c0-1.541,1.247-2.788,2.788-2.788s2.788,1.247,2.788,2.788v8.4
			c0,2.641,1.247,3.998,3.375,3.998c2.127,0,3.484-1.357,3.484-3.998v-8.4c0-1.541,1.248-2.788,2.788-2.788s2.788,1.247,2.788,2.788
			V47.743z M91.806,47.743c0,1.541-1.247,2.788-2.788,2.788c-1.54,0-2.788-1.247-2.788-2.788v-8.4c0-2.641-1.247-3.999-3.375-3.999
			s-3.485,1.357-3.485,3.999v8.4c0,1.541-1.247,2.788-2.788,2.788s-2.788-1.247-2.788-2.788V33.217c0-1.541,1.248-2.788,2.788-2.788
			s2.788,1.247,2.788,2.788v0.22c1.284-1.651,2.935-3.155,5.759-3.155c4.218,0,6.676,2.789,6.676,7.3L91.806,47.743L91.806,47.743z
			 M114.221,47.743c0,1.541-1.248,2.788-2.788,2.788s-2.788-1.247-2.788-2.788v-0.256c-1.357,1.834-3.228,3.191-6.125,3.191
			c-4.585,0-8.951-3.595-8.951-10.161v-0.073c0-6.566,4.292-10.162,8.951-10.162c2.971,0,4.805,1.357,6.125,2.936v-7.117
			c0-1.541,1.248-2.788,2.788-2.788s2.788,1.248,2.788,2.788V47.743z M137.404,40.517c0,5.649-4.548,10.234-10.673,10.234
			c-6.089,0-10.602-4.511-10.602-10.16v-0.074c0-5.649,4.549-10.234,10.675-10.234c6.088,0,10.6,4.512,10.6,10.161V40.517z
			 M157.215,50.715h-0.367c-1.541,0-2.604-0.844-3.19-2.238l-8.327-19.918c-0.184-0.44-0.33-0.88-0.33-1.357
			c0-1.577,1.247-2.788,2.824-2.788c1.467,0,2.421,0.844,2.861,1.981l6.42,16.617l6.492-16.801c0.367-0.917,1.356-1.797,2.715-1.797
			c1.541,0,2.787,1.174,2.787,2.715c0,0.44-0.146,0.917-0.293,1.247l-8.399,20.102C159.818,49.871,158.755,50.715,157.215,50.715z
			 M184.802,42.425h-11.04c0.549,2.531,2.311,3.852,4.805,3.852c1.539,0,2.824-0.477,3.961-1.321c0.402-0.293,0.771-0.44,1.356-0.44
			c1.248,0,2.165,0.954,2.165,2.201c0,0.734-0.33,1.284-0.734,1.651c-1.724,1.467-3.961,2.384-6.821,2.384
			c-5.906,0-10.271-4.145-10.271-10.161v-0.073c0-5.613,3.998-10.235,9.721-10.235c6.565,0,9.464,5.393,9.464,9.464
			C187.407,41.361,186.27,42.425,184.802,42.425z M199.809,35.749c-2.826,0.66-4.402,2.824-4.402,6.786v5.208
			c0,1.541-1.248,2.788-2.788,2.788c-1.541,0-2.788-1.247-2.788-2.788V33.217c0-1.541,1.247-2.788,2.788-2.788
			c1.54,0,2.788,1.247,2.788,2.788v0.88c0.807-1.908,2.127-3.668,3.777-3.668c1.725,0,2.715,1.137,2.715,2.714
			C201.898,34.611,200.943,35.491,199.809,35.749z M223.102,47.743c0,1.541-1.246,2.788-2.789,2.788
			c-1.541,0-2.787-1.247-2.787-2.788v-0.256c-1.357,1.834-3.229,3.191-6.125,3.191c-4.586,0-8.951-3.595-8.951-10.161v-0.073
			c0-6.566,4.292-10.162,8.951-10.162c2.971,0,4.806,1.357,6.125,2.936v-7.117c0-1.541,1.246-2.788,2.787-2.788
			c1.543,0,2.789,1.248,2.789,2.788V47.743z M241.885,42.425h-11.042c0.55,2.531,2.312,3.852,4.806,3.852
			c1.541,0,2.826-0.477,3.961-1.321c0.404-0.293,0.771-0.44,1.357-0.44c1.247,0,2.164,0.954,2.164,2.201
			c0,0.734-0.329,1.284-0.732,1.651c-1.725,1.467-3.961,2.384-6.822,2.384c-5.906,0-10.271-4.145-10.271-10.161v-0.073
			c0-5.613,3.998-10.235,9.721-10.235c6.566,0,9.465,5.393,9.465,9.464C244.49,41.361,243.352,42.425,241.885,42.425z"/>
		<path fill="#0E824F" d="M235.025,34.758c-2.313,0-3.815,1.651-4.256,4.182h8.399C238.84,36.445,237.373,34.758,235.025,34.758z"/>
	</g>
</g>
</svg>
